<svg width="131" height="25" viewBox="0 0 131 25" fill="none" xmlns="http://www.w3.org/2000/svg">
<path d="M13.5923 20.9643V25H0V0H4.36384V20.9643H13.5923Z" fill="#FFC700"/>
<path d="M13.3531 0H17.7169V25H13.3531V0Z" fill="#FFC700"/>
<path d="M36.8419 0L29.4735 25H24.7877L17.4193 0H21.8547L27.1485 19.2143L32.4066 0H36.8419Z" fill="#FFC700"/>
<path d="M40.8176 4.03572V10.4286H48.3291V14.5H40.8176V20.9643H50.8687V25H36.4538V0H50.8687V4.03572H40.8176Z" fill="#FFC700"/>
<path d="M64.8237 0C65.6107 0 66.2545 0.25 66.7553 0.750001C67.2322 1.22619 67.4707 1.83333 67.4707 2.57143V6.96429H63.1068V4.75C63.1068 4.27381 62.8803 4.03572 62.4272 4.03572H56.418C55.9649 4.03572 55.7384 4.27381 55.7384 4.75V9.71429C55.7384 10.1905 55.9649 10.4286 56.418 10.4286H64.8237C65.6107 10.4286 66.2545 10.6786 66.7553 11.1786C67.2322 11.6548 67.4707 12.2619 67.4707 13V22.4286C67.4707 23.1429 67.2322 23.75 66.7553 24.25C66.2545 24.75 65.6107 25 64.8237 25H54.0215C53.2584 25 52.6265 24.75 52.1257 24.25C51.6249 23.75 51.3745 23.1429 51.3745 22.4286V17.7143H55.7384V20.25C55.7384 20.7262 55.9649 20.9643 56.418 20.9643H62.4272C62.8803 20.9643 63.1068 20.7262 63.1068 20.25V15.1429C63.1068 14.6905 62.8803 14.4643 62.4272 14.4643H54.0215C53.2584 14.4643 52.6265 14.2143 52.1257 13.7143C51.6249 13.2381 51.3745 12.631 51.3745 11.8929V2.57143C51.3745 1.83333 51.6249 1.22619 52.1257 0.750001C52.6265 0.25 53.2584 0 54.0215 0H64.8237Z" fill="#FFC700"/>
<path d="M81.0235 0C81.8105 0 82.4543 0.25 82.9551 0.750001C83.432 1.22619 83.6704 1.83333 83.6704 2.57143V13.7143C83.6704 14.4286 83.432 15.0357 82.9551 15.5357C82.4543 16.0357 81.8105 16.2857 81.0235 16.2857H72.6535V25H68.2897V0H81.0235ZM79.3066 4.75C79.3066 4.27381 79.0801 4.03572 78.627 4.03572H72.6535V12.2143H78.627C79.0801 12.2143 79.3066 11.9881 79.3066 11.5357V4.75Z" fill="#FFC700"/>
<path d="M94.1561 19.4286H86.6804L85.1423 25H80.7069L88.0754 0H92.7611L100.13 25H95.6942L94.1561 19.4286ZM93.0473 15.3929L90.4361 5.78571L87.7892 15.3929H93.0473Z" fill="#FFC700"/>
<path d="M113.119 0C113.906 0 114.55 0.25 115.051 0.750001C115.528 1.22619 115.766 1.83333 115.766 2.57143V7.57143H111.402V4.75C111.402 4.27381 111.176 4.03572 110.723 4.03572H104.713C104.26 4.03572 104.034 4.27381 104.034 4.75V20.25C104.034 20.7262 104.26 20.9643 104.713 20.9643H110.723C111.176 20.9643 111.402 20.7262 111.402 20.25V17.4286H115.766V22.4286C115.766 23.1429 115.528 23.75 115.051 24.25C114.55 24.75 113.906 25 113.119 25H102.317C101.554 25 100.922 24.75 100.421 24.25C99.9203 23.75 99.6699 23.1429 99.6699 22.4286V2.57143C99.6699 1.83333 99.9203 1.22619 100.421 0.750001C100.922 0.25 101.554 0 102.317 0H113.119Z" fill="#FFC700"/>
<path d="M120.949 4.03572V10.4286H128.46V14.5H120.949V20.9643H131V25H116.585V0H131V4.03572H120.949Z" fill="#FFC700"/>
</svg>
